<svg width="26" height="32" viewBox="0 0 26 32" fill="none" xmlns="http://www.w3.org/2000/svg">
<path d="M25.5 12.5C25.5 19.4036 20.1536 28 13.25 31.75C6.34644 28 0.5 19.4036 0.5 12.5C0.5 5.59644 6.09644 0 13 0C19.9036 0 25.5 5.59644 25.5 12.5Z" fill="#003479"/>
<circle cx="13" cy="12.75" r="10.5" fill="#006EFF"/>
<path d="M16.2254 13.913C17.1201 14.9934 18.0129 16.3973 17.3914 17.6548C16.7701 18.9119 15.4357 18.4391 14.1425 18.0071C13.4 17.7592 12.6133 17.8026 11.8764 18.0664C10.7516 18.469 9.40666 18.8368 8.71363 17.7368C7.93245 16.4968 8.94731 14.9958 9.87136 13.8583C11.0319 12.4297 11.0225 11.75 13 11.75C15.0574 11.75 14.8872 12.2972 16.2254 13.913Z" fill="#ECECEC"/>
<ellipse cx="8.21129" cy="12.086" rx="1.75" ry="2.25" transform="rotate(-13 8.21129 12.086)" fill="#ECECEC"/>
<ellipse cx="11.0747" cy="9.07757" rx="1.8125" ry="2.4835" transform="rotate(-13 11.0747 9.07757)" fill="#ECECEC"/>
<ellipse cx="14.9574" cy="9.07757" rx="1.8125" ry="2.4835" transform="rotate(13 14.9574 9.07757)" fill="#ECECEC"/>
<ellipse cx="17.7113" cy="12.086" rx="1.75" ry="2.25" transform="rotate(13 17.7113 12.086)" fill="#ECECEC"/>
</svg>
